# xmcd CD database file
#
# Track frame offsets:
#	150
#	11840
#	24283
#	51083
#	68713
#	82063
#	98173
#	115248
#	131293
#	147015
#	159008
#	175217
#	200473
#	218053
#	246540
#
# Disc length: 3516 seconds
#
# Revision: 4
# Processed by: cddbd v1.5.2PL0 Copyright (c) Steve Scherf et al.
# Submitted via: CDex 1.70beta2
#
DISCID=c60dba0f
DTITLE=The Rosenberg Trio - The Best Of CD1
DYEAR=2001
DGENRE=Jazz
TTITLE0=Seresta
TTITLE1=Troublant Bolero
TTITLE2=Tears (With Stéphane Grappelli)
TTITLE3=Entre Dos Aquas
TTITLE4=Minor Blues
TTITLE5=Miro Tata Mimer (For My Dad Mimer)
TTITLE6=Begin The Beguine
TTITLE7=Nuages
TTITLE8=I Surrender Dear
TTITLE9=Melodie Au Crépuscule
TTITLE10=Gipsy Summer
TTITLE11=Night And Day (With Stéphane Grappelli)
TTITLE12=Pent-Up House (With Stéphane Grappelli)
TTITLE13=Concierto De Aranjuez - Adagio
TTITLE14=Impressions
EXTD=YEAR: 2001
EXTT0=
EXTT1=
EXTT2=
EXTT3=
EXTT4=
EXTT5=
EXTT6=
EXTT7=
EXTT8=
EXTT9=
EXTT10=
EXTT11=
EXTT12=
EXTT13=
EXTT14=
PLAYORDER=
